<?xml version="1.0" standalone="no"?>
<!DOCTYPE svg PUBLIC "-//W3C//DTD SVG 20010904//EN"
 "http://www.w3.org/TR/2001/REC-SVG-20010904/DTD/svg10.dtd">
<svg version="1.0" xmlns="http://www.w3.org/2000/svg"
 width="300.000000pt" height="77.000000pt" viewBox="0 0 300.000000 77.000000"
 preserveAspectRatio="xMidYMid meet">
<metadata>
Created by potrace 1.10, written by Peter Selinger 2001-2011
</metadata>
<g transform="translate(0.000000,77.000000) scale(0.100000,-0.100000)"
fill="#1aa5ea" stroke="none">
<path d="M245 588 c-17 -14 -42 -28 -57 -32 -15 -3 -30 -16 -34 -29 -4 -12 -5
-23 -3 -23 2 -1 -4 -10 -13 -20 -27 -31 -30 -66 -9 -101 25 -40 55 -46 191
-41 97 3 103 4 126 31 36 42 32 90 -11 135 -19 20 -45 50 -58 65 -32 41 -93
48 -132 15z m109 -19 c14 -11 26 -29 26 -40 0 -11 10 -23 24 -29 45 -17 60
-72 29 -109 -16 -19 -29 -21 -142 -22 -109 -1 -126 1 -138 17 -17 24 -17 69 2
84 8 7 15 20 15 30 0 19 27 46 37 37 3 -4 21 7 40 23 40 35 70 38 107 9z"/>
<path d="M620 494 c0 -31 0 -32 45 -26 l45 5 0 -132 0 -131 35 0 35 0 0 131 0
131 47 -4 c46 -3 47 -2 47 25 l0 28 -127 2 -127 2 0 -31z m193 -1 c-17 -2 -36
-10 -42 -17 -5 -6 -11 -58 -13 -114 -2 -56 -6 -102 -10 -102 -5 0 -8 44 -8 98
0 103 -8 126 -45 135 -11 3 18 4 65 4 47 0 71 -2 53 -4z"/>
<path d="M995 516 c-44 -19 -92 -78 -100 -124 -8 -49 16 -113 57 -147 112 -95
278 -23 278 121 0 117 -126 198 -235 150z m19 -37 c-33 -12 -63 -47 -73 -85
-13 -45 4 -91 44 -122 16 -12 25 -25 22 -28 -3 -4 -24 12 -47 34 -34 35 -40
48 -40 82 0 23 5 51 11 62 19 35 70 77 87 70 13 -4 12 -7 -4 -13z m69 14 c-7
-2 -21 -2 -30 0 -10 3 -4 5 12 5 17 0 24 -2 18 -5z m63 -14 c18 -11 40 -34 49
-51 17 -35 20 -98 5 -98 -5 0 -9 -3 -8 -7 1 -5 -1 -17 -5 -28 -7 -22 -67 -63
-67 -46 0 5 8 12 18 15 28 10 59 76 51 114 -9 43 -50 102 -71 102 -10 0 -18 5
-18 10 0 14 9 13 46 -11z m-30 -28 c20 -12 37 -34 44 -55 10 -31 9 -42 -8 -74
-38 -74 -130 -78 -173 -8 -25 41 -24 77 2 110 38 48 85 57 135 27z m-23 -218
c-13 -2 -33 -2 -45 0 -13 2 -3 4 22 4 25 0 35 -2 23 -4z"/>
<path d="M1290 372 l0 -162 36 0 35 0 -3 90 c-3 78 2 108 14 83 2 -7 133 -124
191 -172 16 -13 17 -5 17 146 l0 161 -35 4 -35 4 0 -94 0 -94 -87 78 c-49 43
-98 87 -110 98 l-23 19 0 -161z m260 8 c0 -113 -7 -140 -27 -107 -4 7 -21 23
-37 35 -16 12 -25 22 -21 22 4 0 -17 16 -46 36 -70 49 -82 41 -90 -57 -3 -41
-7 -72 -8 -69 -7 13 -11 230 -4 230 5 0 39 -27 76 -60 122 -107 137 -106 137
10 0 47 4 80 10 80 6 0 10 -47 10 -120z"/>
<path d="M1650 368 l0 -158 120 0 120 0 0 31 0 30 -85 -3 -85 -3 0 35 0 35 75
-3 75 -4 0 33 0 34 -75 -3 -75 -4 0 42 0 42 85 -3 85 -4 0 30 0 30 -120 0
-120 0 0 -157z m135 125 c-73 -5 -95 -21 -90 -70 2 -19 6 -38 10 -41 4 -4 37
-10 73 -13 l67 -6 -59 -1 c-68 -2 -96 -20 -96 -62 0 -33 25 -57 65 -63 17 -2
4 -4 -28 -3 l-58 0 2 133 1 133 86 -2 c73 -1 77 -2 27 -5z m52 -259 c-3 -3
-12 -4 -19 -1 -8 3 -5 6 6 6 11 1 17 -2 13 -5z"/>
<path d="M2134 516 c-17 -8 -39 -24 -48 -37 -41 -59 -2 -114 99 -138 78 -19
103 -43 70 -67 -24 -18 -87 -12 -124 13 -23 15 -25 14 -42 -8 -25 -32 -24 -33
17 -52 77 -37 169 -31 210 14 24 27 24 91 1 117 -10 11 -39 25 -65 32 -93 24
-112 32 -112 46 0 8 12 20 26 26 21 10 35 9 72 -4 43 -16 48 -16 64 -1 26 24
23 32 -24 53 -50 23 -100 25 -144 6z m140 -27 c17 -16 2 -17 -47 -5 -26 7 -45
15 -41 18 8 8 76 -2 88 -13z m-128 -14 c-29 -27 -29 -26 -20 -50 8 -21 46 -39
112 -55 56 -13 72 -30 72 -78 0 -30 -20 -54 -49 -59 -60 -10 -151 2 -151 19 0
6 11 8 28 3 76 -19 106 -17 131 9 22 23 23 28 11 51 -8 14 -28 29 -49 35 -20
6 -53 16 -75 22 -41 13 -48 23 -50 69 0 29 25 58 53 59 8 0 3 -10 -13 -25z"/>
<path d="M2390 368 l0 -158 120 0 120 0 0 31 0 30 -82 -2 c-46 -1 -84 1 -85 5
-2 3 -3 20 -3 37 l0 32 75 -5 75 -5 0 31 0 31 -75 -3 -75 -4 0 42 0 42 85 -3
85 -4 0 30 0 30 -120 0 -120 0 0 -157z m140 125 c-81 -4 -90 -10 -90 -60 0
-58 6 -63 84 -65 l71 -2 -65 -3 c-81 -5 -92 -14 -88 -72 l3 -46 80 -6 80 -5
-96 -2 -96 -2 0 135 0 135 96 -2 c92 -2 93 -2 21 -5z"/>
<path d="M2660 495 c0 -30 1 -30 45 -27 l45 4 0 -131 0 -131 35 0 35 0 0 131
0 131 45 -4 c44 -3 45 -3 45 27 l0 30 -125 0 -125 0 0 -30z m200 -2 c-53 -6
-60 -23 -60 -145 0 -89 -3 -108 -15 -108 -12 0 -15 19 -15 114 0 123 -3 131
-55 139 -16 2 17 4 75 4 58 0 89 -2 70 -4z"/>
<path d="M230 275 c0 -40 -21 -55 -51 -37 -27 17 -47 15 -59 -7 -7 -15 -6 -23
6 -35 19 -20 29 -20 47 -2 8 8 27 16 43 18 27 3 29 6 32 51 2 28 -1 47 -7 47
-6 0 -11 -16 -11 -35z m-70 -55 c0 -5 -4 -10 -10 -10 -5 0 -10 5 -10 10 0 6 5
10 10 10 6 0 10 -4 10 -10z"/>
<path d="M280 250 c0 -33 -5 -69 -12 -79 -16 -26 -3 -51 26 -51 29 0 44 33 25
56 -8 9 -11 38 -10 75 2 48 -1 59 -13 59 -13 0 -16 -12 -16 -60z m30 -101 c0
-5 -7 -9 -15 -9 -15 0 -20 12 -9 23 8 8 24 -1 24 -14z"/>
<path d="M342 263 c3 -45 5 -48 33 -51 16 -2 35 -11 41 -20 17 -23 49 -4 49
29 0 19 -6 25 -27 27 -16 2 -28 -1 -28 -7 0 -6 -11 -11 -25 -11 -22 0 -25 4
-25 40 0 22 -5 40 -11 40 -6 0 -9 -19 -7 -47z m106 -44 c-2 -6 -8 -10 -13 -10
-5 0 -11 4 -13 10 -2 6 4 11 13 11 9 0 15 -5 13 -11z"/>
</g>
</svg>
